<svg width="240" height="264" viewBox="0 0 240 264" fill="none" xmlns="http://www.w3.org/2000/svg" role="img" aria-label="Customer Intelligence engine">
  <defs>
    <linearGradient id="cus-face" x1="120" y1="28" x2="120" y2="196" gradientUnits="userSpaceOnUse">
      <stop offset="0" stop-color="#18233a"/>
      <stop offset="0.55" stop-color="#0f1726"/>
      <stop offset="1" stop-color="#0a0f1c"/>
    </linearGradient>
    <linearGradient id="cus-rim" x1="44" y1="24" x2="196" y2="200" gradientUnits="userSpaceOnUse">
      <stop offset="0" stop-color="#ffd9a8"/>
      <stop offset="0.45" stop-color="#f97316"/>
      <stop offset="0.7" stop-color="#f472b6"/>
      <stop offset="1" stop-color="#00d4ff"/>
    </linearGradient>
    <radialGradient id="cus-glow" cx="0.5" cy="0.4" r="0.7">
      <stop offset="0" stop-color="#f97316" stop-opacity="0.5"/>
      <stop offset="1" stop-color="#f97316" stop-opacity="0"/>
    </radialGradient>
    <linearGradient id="cus-sheen" x1="120" y1="28" x2="120" y2="92" gradientUnits="userSpaceOnUse">
      <stop offset="0" stop-color="#ffffff" stop-opacity="0.22"/>
      <stop offset="1" stop-color="#ffffff" stop-opacity="0"/>
    </linearGradient>
    <filter id="cus-soft" x="-40%" y="-40%" width="180%" height="180%">
      <feGaussianBlur stdDeviation="9"/>
    </filter>
  </defs>

  <ellipse cx="120" cy="226" rx="70" ry="13" fill="#f97316" fill-opacity="0.18" filter="url(#cus-soft)"/>
  <rect x="40" y="22" width="160" height="178" rx="34" fill="url(#cus-rim)"/>
  <rect x="44.5" y="26.5" width="151" height="169" rx="30" fill="url(#cus-face)" stroke="#000000" stroke-opacity="0.25"/>
  <ellipse cx="120" cy="118" rx="74" ry="82" fill="url(#cus-glow)"/>
  <rect x="52" y="33" width="136" height="60" rx="24" fill="url(#cus-sheen)"/>

  <g fill="none" stroke="#ffd9a8" stroke-width="5" stroke-linecap="round" stroke-linejoin="round">
    <circle cx="120" cy="98" r="17" fill="#f97316" fill-opacity="0.18"/>
    <path d="M92 158 a28 28 0 0 1 56 0"/>
    <circle cx="84" cy="116" r="12" fill="#f97316" fill-opacity="0.12"/>
    <circle cx="156" cy="116" r="12" fill="#f97316" fill-opacity="0.12"/>
    <path d="M64 162 a22 22 0 0 1 30 -20"/>
    <path d="M176 162 a22 22 0 0 0 -30 -20"/>
  </g>
</svg>
