<svg width="240" height="264" viewBox="0 0 240 264" fill="none" xmlns="http://www.w3.org/2000/svg" role="img" aria-label="Operations Intelligence engine">
  <defs>
    <linearGradient id="ops-face" x1="120" y1="28" x2="120" y2="196" gradientUnits="userSpaceOnUse">
      <stop offset="0" stop-color="#18233a"/>
      <stop offset="0.55" stop-color="#0f1726"/>
      <stop offset="1" stop-color="#0a0f1c"/>
    </linearGradient>
    <linearGradient id="ops-rim" x1="44" y1="24" x2="196" y2="200" gradientUnits="userSpaceOnUse">
      <stop offset="0" stop-color="#9cffd6"/>
      <stop offset="0.45" stop-color="#10b981"/>
      <stop offset="0.7" stop-color="#00d4ff"/>
      <stop offset="1" stop-color="#a78bfa"/>
    </linearGradient>
    <radialGradient id="ops-glow" cx="0.5" cy="0.4" r="0.7">
      <stop offset="0" stop-color="#10b981" stop-opacity="0.5"/>
      <stop offset="1" stop-color="#10b981" stop-opacity="0"/>
    </radialGradient>
    <linearGradient id="ops-sheen" x1="120" y1="28" x2="120" y2="92" gradientUnits="userSpaceOnUse">
      <stop offset="0" stop-color="#ffffff" stop-opacity="0.22"/>
      <stop offset="1" stop-color="#ffffff" stop-opacity="0"/>
    </linearGradient>
    <filter id="ops-soft" x="-40%" y="-40%" width="180%" height="180%">
      <feGaussianBlur stdDeviation="9"/>
    </filter>
  </defs>

  <ellipse cx="120" cy="226" rx="70" ry="13" fill="#10b981" fill-opacity="0.18" filter="url(#ops-soft)"/>
  <rect x="40" y="22" width="160" height="178" rx="34" fill="url(#ops-rim)"/>
  <rect x="44.5" y="26.5" width="151" height="169" rx="30" fill="url(#ops-face)" stroke="#000000" stroke-opacity="0.25"/>
  <ellipse cx="120" cy="118" rx="74" ry="82" fill="url(#ops-glow)"/>
  <rect x="52" y="33" width="136" height="60" rx="24" fill="url(#ops-sheen)"/>

  <g fill="none" stroke="#9cffd6" stroke-width="5" stroke-linecap="round" stroke-linejoin="round">
    <rect x="82" y="92" width="34" height="34" rx="5" fill="#10b981" fill-opacity="0.14"/>
    <rect x="126" y="92" width="34" height="34" rx="5" fill="#10b981" fill-opacity="0.10"/>
    <rect x="104" y="132" width="34" height="34" rx="5" fill="#10b981" fill-opacity="0.18"/>
    <path d="M116 109 h10"/>
    <path d="M121 126 v6"/>
  </g>
</svg>
